<?xml version="1.0" encoding="UTF-8"?>
<svg xmlns="http://www.w3.org/2000/svg" width="300" height="200">
<path d="M 210.000000 100.000000 L 209.998816 100.376989 L 209.995263 100.753962 L 209.989341 101.130906 L 209.981051 101.507806 L 209.970394 101.884646 L 209.957368 102.261411 L 209.941976 102.638087 L 209.924217 103.014659 L 209.904093 103.391112 L 209.881604 103.767431 L 209.856750 104.143602 L 209.829534 104.519609 L 209.799956 104.895437 L 209.768017 105.271072 L 209.733718 105.646499 L 209.697061 106.021703 L 209.658047 106.396670 L 209.616679 106.771383 L 209.572956 107.145830 L 209.526882 107.519994 L 209.478458 107.893862 L 209.427685 108.267418 L 209.374567 108.640647 L 209.319105 109.013536 L 209.261300 109.386068 L 209.201157 109.758230 L 209.138676 110.130007 L 209.073860 110.501384 L 209.006712 110.872346 L 208.937235 111.242879 L 208.865431 111.612969 L 208.791303 111.982599 L 208.714854 112.351757 L 208.636087 112.720427 L 208.555006 113.088595 L 208.471612 113.456246 L 208.385911 113.823366 L 208.297904 114.189940 L 208.207596 114.555954 L 208.114990 114.921394 L 208.020089 115.286244 L 207.922898 115.650491 L 207.823421 116.014120 L 207.721660 116.377117 L 207.617621 116.739467 L 207.511307 117.101156 L 207.402723 117.462171 L 207.291872 117.822496 L 207.178760 118.182117 L 207.063391 118.541020 L 206.945768 118.899192 L 206.825898 119.256617 L 206.703784 119.613283 L 206.579432 119.969173 L 206.452846 120.324276 L 206.324031 120.678576 L 206.192993 121.032060 L 206.059736 121.384714 L 205.924266 121.736523 L 205.786589 122.087474 L 205.646709 122.437553 L 205.504632 122.786747 L 205.360364 123.135040 L 205.213910 123.482421 L 205.065277 123.828874 L 204.914470 124.174387 L 204.761495 124.518945 L 204.606358 124.862536 L 204.449065 125.205145 L 204.289623 125.546758 L 204.128037 125.887364 L 203.964315 126.226947 L 203.798462 126.565495 L 203.630485 126.902994 L 203.460391 127.239431 L 203.288186 127.574793 L 203.113878 127.909066 L 202.937473 128.242237 L 202.758978 128.574293 L 202.578400 128.905221 L 202.395747 129.235009 L 202.211025 129.563642 L 202.024241 129.891107 L 201.835404 130.217393 L 201.644521 130.542486 L 201.451599 130.866373 L 201.256645 131.189042 L 201.059668 131.510479 L 200.860675 131.830672 L 200.659675 132.149609 L 200.456674 132.467276 L 200.251682 132.783662 L 200.044705 133.098753 L 199.835753 133.412538 L 199.624834 133.725004 L 199.411955 134.036138 L 199.197126 134.345929 L 198.980354 134.654363 L 198.761649 134.961430 L 198.541019 135.267116 L 198.318472 135.571410 L 198.094018 135.874300 L 197.867665 136.175774 L 197.639423 136.475819 L 197.409300 136.774424 L 197.177305 137.071578 L 196.943448 137.367268 L 196.707737 137.661483 L 196.470183 137.954211 L 196.230794 138.245441 L 195.989579 138.535160 L 195.746550 138.823359 L 195.501714 139.110025 L 195.255082 139.395147 L 195.006663 139.678713 L 194.756468 139.960713 L 194.504505 140.241136 L 194.250786 140.519970 L 193.995320 140.797204 L 193.738116 141.072828 L 193.479187 141.346830 L 193.218540 141.619200 L 192.956188 141.889926 L 192.692139 142.159000 L 192.426406 142.426408 L 192.158997 142.692142 L 191.889924 142.956190 L 191.619197 143.218543 L 191.346827 143.479189 L 191.072825 143.738119 L 190.797201 143.995322 L 190.519967 144.250788 L 190.241133 144.504508 L 189.960711 144.756470 L 189.678710 145.006666 L 189.395144 145.255084 L 189.110022 145.501716 L 188.823356 145.746552 L 188.535158 145.989582 L 188.245438 146.230796 L 187.954208 146.470185 L 187.661480 146.707739 L 187.367265 146.943450 L 187.071575 147.177307 L 186.774422 147.409302 L 186.475816 147.639425 L 186.175771 147.867668 L 185.874297 148.094020 L 185.571407 148.318474 L 185.267113 148.541021 L 184.961427 148.761651 L 184.654360 148.980356 L 184.345926 149.197128 L 184.036135 149.411957 L 183.725001 149.624836 L 183.412535 149.835755 L 183.098750 150.044707 L 182.783659 150.251684 L 182.467273 150.456676 L 182.149606 150.659677 L 181.830669 150.860677 L 181.510476 151.059670 L 181.189038 151.256647 L 180.866370 151.451601 L 180.542483 151.644523 L 180.217390 151.835406 L 179.891104 152.024243 L 179.563638 152.211027 L 179.235005 152.395749 L 178.905218 152.578402 L 178.574290 152.758980 L 178.242234 152.937475 L 177.909062 153.113880 L 177.574789 153.288188 L 177.239428 153.460393 L 176.902991 153.630487 L 176.565491 153.798463 L 176.226944 153.964316 L 175.887360 154.128039 L 175.546755 154.289624 L 175.205141 154.449067 L 174.862532 154.606359 L 174.518942 154.761496 L 174.174384 154.914471 L 173.828871 155.065279 L 173.482417 155.213912 L 173.135037 155.360365 L 172.786743 155.504633 L 172.437550 155.646710 L 172.087471 155.786590 L 171.736519 155.924268 L 171.384710 156.059738 L 171.032057 156.192994 L 170.678573 156.324032 L 170.324272 156.452847 L 169.969170 156.579433 L 169.613279 156.703785 L 169.256614 156.825899 L 168.899188 156.945770 L 168.541017 157.063392 L 168.182113 157.178761 L 167.822492 157.291874 L 167.462167 157.402724 L 167.101153 157.511308 L 166.739463 157.617622 L 166.377113 157.721661 L 166.014116 157.823422 L 165.650487 157.922899 L 165.286241 158.020090 L 164.921390 158.114990 L 164.555951 158.207597 L 164.189937 158.297905 L 163.823362 158.385911 L 163.456243 158.471613 L 163.088591 158.555006 L 162.720423 158.636088 L 162.351753 158.714855 L 161.982596 158.791304 L 161.612965 158.865432 L 161.242876 158.937236 L 160.872343 159.006713 L 160.501380 159.073861 L 160.130003 159.138676 L 159.758227 159.201157 L 159.386065 159.261301 L 159.013532 159.319105 L 158.640644 159.374568 L 158.267414 159.427686 L 157.893858 159.478458 L 157.519991 159.526883 L 157.145826 159.572957 L 156.771380 159.616679 L 156.396666 159.658048 L 156.021699 159.697061 L 155.646495 159.733718 L 155.271068 159.768017 L 154.895433 159.799956 L 154.519605 159.829534 L 154.143598 159.856751 L 153.767428 159.881604 L 153.391108 159.904093 L 153.014655 159.924218 L 152.638083 159.941976 L 152.261407 159.957368 L 151.884642 159.970394 L 151.507802 159.981051 L 151.130903 159.989341 L 150.753959 159.995263 L 150.376985 159.998816 L 149.999996 160.000000 L 149.623008 159.998816 L 149.246034 159.995263 L 148.869090 159.989341 L 148.492190 159.981051 L 148.115351 159.970394 L 147.738585 159.957368 L 147.361909 159.941976 L 146.985337 159.924217 L 146.608884 159.904093 L 146.232565 159.881603 L 145.856395 159.856750 L 145.480388 159.829534 L 145.104559 159.799955 L 144.728924 159.768016 L 144.353497 159.733718 L 143.978293 159.697061 L 143.603327 159.658047 L 143.228613 159.616678 L 142.854166 159.572956 L 142.480002 159.526882 L 142.106134 159.478457 L 141.732579 159.427685 L 141.359349 159.374567 L 140.986461 159.319104 L 140.613928 159.261300 L 140.241766 159.201156 L 139.869989 159.138675 L 139.498612 159.073859 L 139.127650 159.006712 L 138.757117 158.937234 L 138.387028 158.865430 L 138.017397 158.791302 L 137.648239 158.714853 L 137.279569 158.636087 L 136.911401 158.555005 L 136.543750 158.471611 L 136.176630 158.385910 L 135.810056 158.297903 L 135.444042 158.207595 L 135.078603 158.114989 L 134.713752 158.020088 L 134.349505 157.922897 L 133.985876 157.823420 L 133.622880 157.721659 L 133.260529 157.617620 L 132.898840 157.511306 L 132.537826 157.402722 L 132.177501 157.291871 L 131.817880 157.178759 L 131.458976 157.063390 L 131.100805 156.945767 L 130.743379 156.825897 L 130.386714 156.703783 L 130.030823 156.579431 L 129.675720 156.452845 L 129.321420 156.324030 L 128.967936 156.192992 L 128.615283 156.059735 L 128.263474 155.924265 L 127.912523 155.786587 L 127.562443 155.646707 L 127.213250 155.504631 L 126.864956 155.360363 L 126.517576 155.213909 L 126.171122 155.065276 L 125.825610 154.914468 L 125.481051 154.761493 L 125.137461 154.606356 L 124.794852 154.449063 L 124.453238 154.289621 L 124.112633 154.128035 L 123.773050 153.964313 L 123.434502 153.798460 L 123.097003 153.630483 L 122.760566 153.460389 L 122.425204 153.288185 L 122.090931 153.113876 L 121.757760 152.937471 L 121.425703 152.758976 L 121.094775 152.578398 L 120.764988 152.395745 L 120.436355 152.211023 L 120.108889 152.024240 L 119.782604 151.835403 L 119.457511 151.644519 L 119.133624 151.451597 L 118.810955 151.256643 L 118.489518 151.059666 L 118.169325 150.860673 L 117.850388 150.659673 L 117.532721 150.456672 L 117.216335 150.251680 L 116.901243 150.044703 L 116.587459 149.835751 L 116.274993 149.624832 L 115.963859 149.411953 L 115.654068 149.197124 L 115.345634 148.980352 L 115.038567 148.761647 L 114.732881 148.541017 L 114.428587 148.318470 L 114.125697 148.094016 L 113.824223 147.867663 L 113.524178 147.639421 L 113.225573 147.409297 L 112.928419 147.177303 L 112.632729 146.943445 L 112.338514 146.707735 L 112.045786 146.470180 L 111.754556 146.230791 L 111.464837 145.989577 L 111.176638 145.746547 L 110.889972 145.501711 L 110.604851 145.255079 L 110.321284 145.006661 L 110.039284 144.756465 L 109.758861 144.504503 L 109.480027 144.250783 L 109.202793 143.995317 L 108.927170 143.738114 L 108.653167 143.479184 L 108.380798 143.218538 L 108.110071 142.956185 L 107.840998 142.692137 L 107.573589 142.426403 L 107.307855 142.158994 L 107.043807 141.889921 L 106.781455 141.619194 L 106.520808 141.346824 L 106.261878 141.072822 L 106.004675 140.797199 L 105.749209 140.519964 L 105.495490 140.241130 L 105.243527 139.960708 L 104.993332 139.678708 L 104.744913 139.395141 L 104.498281 139.110019 L 104.253446 138.823353 L 104.010416 138.535155 L 103.769202 138.245435 L 103.529813 137.954205 L 103.292258 137.661477 L 103.056548 137.367262 L 102.822690 137.071572 L 102.590696 136.774419 L 102.360572 136.475813 L 102.132330 136.175768 L 101.905977 135.874294 L 101.681523 135.571404 L 101.458977 135.267110 L 101.238347 134.961424 L 101.019641 134.654357 L 100.802870 134.345923 L 100.588041 134.036132 L 100.375162 133.724998 L 100.164243 133.412532 L 99.955291 133.098747 L 99.748314 132.783656 L 99.543322 132.467270 L 99.340321 132.149603 L 99.139321 131.830666 L 98.940328 131.510473 L 98.743351 131.189035 L 98.548397 130.866367 L 98.355475 130.542480 L 98.164592 130.217387 L 97.975755 129.891101 L 97.788972 129.563635 L 97.604250 129.235002 L 97.421596 128.905215 L 97.241018 128.574287 L 97.062523 128.242230 L 96.886118 127.909059 L 96.711810 127.574786 L 96.539606 127.239424 L 96.369512 126.902987 L 96.201535 126.565488 L 96.035682 126.226940 L 95.871960 125.887357 L 95.710374 125.546752 L 95.550932 125.205138 L 95.393639 124.862529 L 95.238502 124.518939 L 95.085527 124.174380 L 94.934720 123.828867 L 94.786087 123.482414 L 94.639633 123.135033 L 94.495365 122.786740 L 94.353288 122.437546 L 94.213408 122.087467 L 94.075731 121.736516 L 93.940261 121.384707 L 93.807004 121.032053 L 93.675966 120.678569 L 93.547152 120.324269 L 93.420566 119.969166 L 93.296213 119.613275 L 93.174100 119.256610 L 93.054229 118.899185 L 92.936607 118.541013 L 92.821237 118.182110 L 92.708125 117.822488 L 92.597275 117.462164 L 92.488691 117.101149 L 92.382377 116.739460 L 92.278338 116.377110 L 92.176577 116.014113 L 92.077100 115.650484 L 91.979909 115.286237 L 91.885009 114.921387 L 91.792403 114.555947 L 91.702094 114.189933 L 91.614088 113.823359 L 91.528386 113.456239 L 91.444993 113.088588 L 91.363911 112.720420 L 91.285144 112.351750 L 91.208695 111.982592 L 91.134568 111.612961 L 91.062764 111.242872 L 90.993286 110.872339 L 90.926139 110.501377 L 90.861323 110.130000 L 90.798842 109.758223 L 90.738698 109.386061 L 90.680894 109.013528 L 90.625432 108.640640 L 90.572313 108.267410 L 90.521541 107.893854 L 90.473117 107.519987 L 90.427043 107.145822 L 90.383321 106.771376 L 90.341952 106.396662 L 90.302938 106.021696 L 90.266281 105.646492 L 90.231983 105.271065 L 90.200044 104.895429 L 90.170465 104.519601 L 90.143249 104.143594 L 90.118396 103.767424 L 90.095907 103.391105 L 90.075782 103.014652 L 90.058024 102.638080 L 90.042631 102.261404 L 90.029606 101.884638 L 90.018948 101.507798 L 90.010659 101.130899 L 90.004737 100.753955 L 90.001184 100.376981 L 90.000000 99.999993 L 90.001184 99.623004 L 90.004737 99.246030 L 90.010659 98.869086 L 90.018949 98.492187 L 90.029607 98.115347 L 90.042632 97.738581 L 90.058024 97.361905 L 90.075783 96.985333 L 90.095907 96.608880 L 90.118397 96.232561 L 90.143250 95.856391 L 90.170467 95.480384 L 90.200045 95.104556 L 90.231984 94.728921 L 90.266283 94.353494 L 90.302940 93.978289 L 90.341953 93.603323 L 90.383322 93.228609 L 90.427045 92.854163 L 90.473119 92.479998 L 90.521543 92.106131 L 90.572316 91.732575 L 90.625434 91.359345 L 90.680896 90.986457 L 90.738701 90.613924 L 90.798845 90.241762 L 90.861326 89.869986 L 90.926141 89.498609 L 90.993289 89.127646 L 91.062766 88.757113 L 91.134570 88.387024 L 91.208698 88.017393 L 91.285147 87.648236 L 91.363914 87.279566 L 91.444996 86.911398 L 91.528389 86.543747 L 91.614091 86.176627 L 91.702098 85.810052 L 91.792406 85.444038 L 91.885012 85.078599 L 91.979913 84.713749 L 92.077104 84.349502 L 92.176581 83.985873 L 92.278342 83.622876 L 92.382381 83.260526 L 92.488695 82.898836 L 92.597279 82.537822 L 92.708130 82.177497 L 92.821242 81.817876 L 92.936612 81.458973 L 93.054234 81.100801 L 93.174104 80.743376 L 93.296218 80.386710 L 93.420571 80.030820 L 93.547157 79.675717 L 93.675971 79.321417 L 93.807010 78.967933 L 93.940266 78.615279 L 94.075736 78.263470 L 94.213414 77.912519 L 94.353294 77.562440 L 94.495371 77.213246 L 94.639639 76.864953 L 94.786092 76.517572 L 94.934726 76.171119 L 95.085533 75.825606 L 95.238508 75.481048 L 95.393645 75.137457 L 95.550938 74.794849 L 95.710380 74.453235 L 95.871966 74.112630 L 96.035689 73.773046 L 96.201542 73.434498 L 96.369518 73.096999 L 96.539612 72.760562 L 96.711817 72.425201 L 96.886125 72.090928 L 97.062530 71.757756 L 97.241026 71.425700 L 97.421603 71.094772 L 97.604257 70.764985 L 97.788979 70.436352 L 97.975762 70.108886 L 98.164599 69.782600 L 98.355483 69.457508 L 98.548405 69.133620 L 98.743359 68.810952 L 98.940336 68.489515 L 99.139329 68.169321 L 99.340329 67.850385 L 99.543330 67.532717 L 99.748322 67.216332 L 99.955299 66.901240 L 100.164251 66.587456 L 100.375171 66.274990 L 100.588049 65.963856 L 100.802879 65.654065 L 101.019650 65.345630 L 101.238355 65.038564 L 101.458986 64.732878 L 101.681532 64.428584 L 101.905986 64.125694 L 102.132339 63.824220 L 102.360582 63.524175 L 102.590705 63.225570 L 102.822700 62.928416 L 103.056557 62.632726 L 103.292268 62.338511 L 103.529822 62.045783 L 103.769211 61.754554 L 104.010425 61.464834 L 104.253455 61.176635 L 104.498291 60.889970 L 104.744923 60.604848 L 104.993342 60.321281 L 105.243537 60.039281 L 105.495500 59.758859 L 105.749219 59.480025 L 106.004686 59.202790 L 106.261889 58.927167 L 106.520819 58.653165 L 106.781465 58.380795 L 107.043818 58.110068 L 107.307866 57.840995 L 107.573600 57.573587 L 107.841008 57.307853 L 108.110082 57.043804 L 108.380808 56.781452 L 108.653178 56.520806 L 108.927181 56.261876 L 109.202804 56.004673 L 109.480038 55.749207 L 109.758872 55.495487 L 110.039295 55.243525 L 110.321295 54.993330 L 110.604862 54.744911 L 110.889984 54.498279 L 111.176650 54.253443 L 111.464848 54.010413 L 111.754568 53.769199 L 112.045798 53.529810 L 112.338526 53.292256 L 112.632741 53.056545 L 112.928431 52.822688 L 113.225584 52.590693 L 113.524190 52.360570 L 113.824235 52.132328 L 114.125709 51.905975 L 114.428599 51.681521 L 114.732893 51.458975 L 115.038579 51.238344 L 115.345646 51.019639 L 115.654080 50.802868 L 115.963871 50.588039 L 116.275005 50.375160 L 116.587471 50.164241 L 116.901256 49.955289 L 117.216347 49.748312 L 117.532733 49.543320 L 117.850401 49.340319 L 118.169337 49.139319 L 118.489531 48.940326 L 118.810968 48.743349 L 119.133637 48.548396 L 119.457524 48.355473 L 119.782617 48.164590 L 120.108902 47.975753 L 120.436368 47.788970 L 120.765001 47.604248 L 121.094788 47.421594 L 121.425717 47.241017 L 121.757773 47.062522 L 122.090944 46.886117 L 122.425217 46.711808 L 122.760579 46.539604 L 123.097016 46.369510 L 123.434515 46.201533 L 123.773063 46.035680 L 124.112646 45.871958 L 124.453252 45.710373 L 124.794866 45.550930 L 125.137474 45.393638 L 125.481065 45.238501 L 125.825623 45.085526 L 126.171136 44.934718 L 126.517589 44.786085 L 126.864970 44.639632 L 127.213264 44.495364 L 127.562457 44.353287 L 127.912536 44.213407 L 128.263488 44.075730 L 128.615297 43.940260 L 128.967951 43.807003 L 129.321434 43.675965 L 129.675735 43.547150 L 130.030837 43.420564 L 130.386728 43.296212 L 130.743393 43.174098 L 131.100819 43.054228 L 131.458990 42.936606 L 131.817894 42.821236 L 132.177515 42.708124 L 132.537840 42.597274 L 132.898854 42.488690 L 133.260544 42.382376 L 133.622894 42.278337 L 133.985891 42.176576 L 134.349520 42.077099 L 134.713767 41.979908 L 135.078617 41.885008 L 135.444056 41.792402 L 135.810071 41.702094 L 136.176645 41.614087 L 136.543765 41.528385 L 136.911416 41.444992 L 137.279584 41.363910 L 137.648254 41.285144 L 138.017412 41.208695 L 138.387042 41.134567 L 138.757132 41.062763 L 139.127665 40.993286 L 139.498627 40.926138 L 139.870004 40.861322 L 140.241781 40.798842 L 140.613943 40.738698 L 140.986475 40.680894 L 141.359364 40.625431 L 141.732593 40.572313 L 142.106149 40.521541 L 142.480017 40.473117 L 142.854181 40.427042 L 143.228628 40.383320 L 143.603342 40.341951 L 143.978308 40.302938 L 144.353512 40.266281 L 144.728939 40.231982 L 145.104574 40.200043 L 145.480403 40.170465 L 145.856410 40.143249 L 146.232580 40.118396 L 146.608899 40.095906 L 146.985352 40.075782 L 147.361924 40.058023 L 147.738600 40.042631 L 148.115366 40.029606 L 148.492205 40.018948 L 148.869105 40.010659 L 149.246049 40.004737 L 149.623023 40.001184 L 150.000011 40.000000 L 150.377000 40.001184 L 150.753974 40.004737 L 151.130918 40.010659 L 151.507817 40.018949 L 151.884657 40.029607 L 152.261422 40.042632 L 152.638098 40.058024 L 153.014670 40.075783 L 153.391123 40.095908 L 153.767443 40.118397 L 154.143613 40.143250 L 154.519620 40.170467 L 154.895448 40.200045 L 155.271083 40.231984 L 155.646510 40.266283 L 156.021714 40.302940 L 156.396681 40.341954 L 156.771395 40.383323 L 157.145841 40.427045 L 157.520005 40.473119 L 157.893873 40.521544 L 158.267429 40.572316 L 158.640658 40.625435 L 159.013547 40.680897 L 159.386079 40.738701 L 159.758241 40.798845 L 160.130018 40.861326 L 160.501395 40.926142 L 160.872357 40.993290 L 161.242890 41.062767 L 161.612980 41.134571 L 161.982610 41.208699 L 162.351768 41.285148 L 162.720438 41.363915 L 163.088606 41.444997 L 163.456257 41.528390 L 163.823377 41.614092 L 164.189951 41.702099 L 164.555965 41.792407 L 164.921405 41.885013 L 165.286255 41.979914 L 165.650502 42.077105 L 166.014131 42.176582 L 166.377128 42.278343 L 166.739478 42.382382 L 167.101167 42.488696 L 167.462181 42.597280 L 167.822506 42.708131 L 168.182128 42.821243 L 168.541031 42.936613 L 168.899203 43.054235 L 169.256628 43.174106 L 169.613293 43.296219 L 169.969184 43.420572 L 170.324287 43.547158 L 170.678587 43.675973 L 171.032071 43.807011 L 171.384724 43.940268 L 171.736533 44.075738 L 172.087484 44.213415 L 172.437564 44.353295 L 172.786757 44.495372 L 173.135051 44.639640 L 173.482431 44.786094 L 173.828885 44.934727 L 174.174397 45.085535 L 174.518956 45.238510 L 174.862546 45.393647 L 175.205155 45.550940 L 175.546769 45.710382 L 175.887374 45.871968 L 176.226957 46.035690 L 176.565505 46.201543 L 176.903004 46.369520 L 177.239441 46.539614 L 177.574803 46.711819 L 177.909076 46.886127 L 178.242247 47.062532 L 178.574303 47.241027 L 178.905231 47.421605 L 179.235018 47.604259 L 179.563651 47.788981 L 179.891117 47.975764 L 180.217403 48.164601 L 180.542496 48.355485 L 180.866383 48.548407 L 181.189051 48.743361 L 181.510488 48.940338 L 181.830682 49.139331 L 182.149618 49.340331 L 182.467286 49.543332 L 182.783671 49.748324 L 183.098763 49.955301 L 183.412547 50.164253 L 183.725013 50.375173 L 184.036147 50.588051 L 184.345938 50.802881 L 184.654373 51.019652 L 184.961439 51.238358 L 185.267125 51.458988 L 185.571419 51.681534 L 185.874309 51.905989 L 186.175783 52.132341 L 186.475828 52.360584 L 186.774433 52.590707 L 187.071587 52.822702 L 187.367277 53.056559 L 187.661492 53.292270 L 187.954220 53.529825 L 188.245449 53.769214 L 188.535169 54.010428 L 188.823368 54.253458 L 189.110033 54.498294 L 189.395155 54.744926 L 189.678722 54.993344 L 189.960722 55.243540 L 190.241144 55.495502 L 190.519978 55.749222 L 190.797212 56.004688 L 191.072836 56.261891 L 191.346838 56.520821 L 191.619208 56.781468 L 191.889935 57.043820 L 192.159008 57.307869 L 192.426416 57.573602 L 192.692150 57.841011 L 192.956198 58.110084 L 193.218551 58.380811 L 193.479197 58.653181 L 193.738127 58.927183 L 193.995330 59.202807 L 194.250796 59.480041 L 194.504515 59.758875 L 194.756478 60.039298 L 195.006673 60.321298 L 195.255092 60.604865 L 195.501724 60.889987 L 195.746559 61.176652 L 195.989589 61.464851 L 196.230803 61.754571 L 196.470192 62.045801 L 196.707746 62.338529 L 196.943457 62.632744 L 197.177314 62.928434 L 197.409309 63.225587 L 197.639432 63.524193 L 197.867674 63.824238 L 198.094027 64.125712 L 198.318481 64.428602 L 198.541028 64.732896 L 198.761658 65.038582 L 198.980363 65.345649 L 199.197134 65.654084 L 199.411964 65.963874 L 199.624842 66.275009 L 199.835762 66.587474 L 200.044714 66.901259 L 200.251690 67.216351 L 200.456682 67.532736 L 200.659683 67.850404 L 200.860683 68.169341 L 201.059676 68.489534 L 201.256653 68.810971 L 201.451606 69.133640 L 201.644529 69.457527 L 201.835412 69.782620 L 202.024249 70.108906 L 202.211032 70.436371 L 202.395754 70.765004 L 202.578407 71.094792 L 202.758985 71.425720 L 202.937480 71.757776 L 203.113885 72.090948 L 203.288193 72.425221 L 203.460398 72.760582 L 203.630492 73.097019 L 203.798468 73.434519 L 203.964321 73.773067 L 204.128044 74.112650 L 204.289629 74.453255 L 204.449071 74.794869 L 204.606364 75.137478 L 204.761501 75.481068 L 204.914476 75.825627 L 205.065283 76.171139 L 205.213916 76.517593 L 205.360370 76.864973 L 205.504638 77.213267 L 205.646714 77.562461 L 205.786594 77.912540 L 205.924272 78.263491 L 206.059742 78.615300 L 206.192998 78.967954 L 206.324036 79.321438 L 206.452851 79.675738 L 206.579437 80.030841 L 206.703789 80.386732 L 206.825903 80.743397 L 206.945773 81.100822 L 207.063395 81.458994 L 207.178765 81.817897 L 207.291877 82.177519 L 207.402727 82.537844 L 207.511311 82.898858 L 207.617625 83.260547 L 207.721664 83.622898 L 207.823425 83.985894 L 207.922902 84.349523 L 208.020093 84.713770 L 208.114993 85.078621 L 208.207599 85.444060 L 208.297907 85.810074 L 208.385914 86.176648 L 208.471616 86.543768 L 208.555009 86.911420 L 208.636090 87.279588 L 208.714857 87.648258 L 208.791306 88.017415 L 208.865434 88.387046 L 208.937238 88.757135 L 209.006715 89.127668 L 209.073863 89.498631 L 209.138678 89.870008 L 209.201159 90.241784 L 209.261303 90.613947 L 209.319107 90.986479 L 209.374569 91.359368 L 209.427688 91.732597 L 209.478460 92.106153 L 209.526884 92.480021 L 209.572958 92.854185 L 209.616680 93.228632 L 209.658049 93.603345 L 209.697062 93.978312 L 209.733719 94.353516 L 209.768018 94.728943 L 209.799957 95.104578 L 209.829535 95.480406 L 209.856751 95.856413 L 209.881605 96.232584 L 209.904094 96.608903 L 209.924218 96.985356 L 209.941977 97.361928 L 209.957369 97.738604 L 209.970394 98.115369 L 209.981052 98.492209 L 209.989341 98.869109 L 209.995263 99.246053 L 209.998816 99.623026" fill="#BC002D" />

<rect x="0" y="0" width="300" height="200" stroke="#999999" fill="none" stroke-width="1"/>
</svg>
