<?xml version="1.0" encoding="UTF-8"?>
<svg xmlns="http://www.w3.org/2000/svg" width="100" height="100">
<path d="M 1.000000 0.000000 L 0.000000 1.000000 L -1.000000 0.000000 L -0.000000 -1.000000" fill="#0000FF" />
<path d="M 51.000000 50.000000 L 49.500000 50.866025 L 49.500000 49.133975" fill="#FF0000" />
<path d="M 62.500000 50.000000 L 62.499753 50.078539 L 62.499013 50.157076 L 62.497779 50.235606 L 62.496052 50.314126 L 62.493832 50.392635 L 62.491118 50.471127 L 62.487912 50.549602 L 62.484212 50.628054 L 62.480019 50.706482 L 62.475334 50.784882 L 62.470156 50.863250 L 62.464486 50.941585 L 62.458324 51.019883 L 62.451670 51.098140 L 62.444525 51.176354 L 62.436888 51.254521 L 62.428760 51.332639 L 62.420141 51.410705 L 62.411033 51.488715 L 62.401434 51.566665 L 62.391345 51.644555 L 62.380768 51.722379 L 62.369701 51.800135 L 62.358147 51.877820 L 62.346104 51.955431 L 62.333574 52.032965 L 62.320557 52.110418 L 62.307054 52.187788 L 62.293065 52.265072 L 62.278591 52.342267 L 62.263631 52.419368 L 62.248188 52.496375 L 62.232261 52.573283 L 62.215852 52.650089 L 62.198960 52.726791 L 62.181586 52.803385 L 62.163731 52.879868 L 62.145397 52.956238 L 62.126582 53.032491 L 62.107289 53.108624 L 62.087519 53.184634 L 62.067270 53.260519 L 62.046546 53.336275 L 62.025346 53.411899 L 62.003671 53.487389 L 61.981522 53.562741 L 61.958901 53.637952 L 61.935807 53.713020 L 61.912242 53.787941 L 61.888206 53.862713 L 61.863702 53.937332 L 61.838729 54.011795 L 61.813288 54.086101 L 61.787382 54.160244 L 61.761010 54.234224 L 61.734173 54.308037 L 61.706874 54.381679 L 61.679112 54.455149 L 61.650889 54.528442 L 61.622206 54.601557 L 61.593064 54.674490 L 61.563465 54.747239 L 61.533409 54.819800 L 61.502898 54.892171 L 61.471933 54.964349 L 61.440515 55.036331 L 61.408645 55.108114 L 61.376325 55.179695 L 61.343555 55.251072 L 61.310338 55.322241 L 61.276674 55.393201 L 61.242566 55.463947 L 61.208013 55.534478 L 61.173018 55.604790 L 61.137581 55.674881 L 61.101706 55.744748 L 61.065391 55.814389 L 61.028640 55.883799 L 60.991454 55.952978 L 60.953833 56.021921 L 60.915781 56.090627 L 60.877297 56.159092 L 60.838384 56.227314 L 60.799043 56.295290 L 60.759275 56.363018 L 60.719083 56.430494 L 60.678468 56.497717 L 60.637431 56.564683 L 60.595974 56.631390 L 60.554099 56.697835 L 60.511807 56.764016 L 60.469100 56.829930 L 60.425980 56.895574 L 60.382449 56.960945 L 60.338507 57.026042 L 60.294157 57.090862 L 60.249401 57.155402 L 60.204240 57.219659 L 60.158677 57.283631 L 60.112712 57.347316 L 60.066348 57.410711 L 60.019587 57.473813 L 59.972430 57.536620 L 59.924880 57.599129 L 59.876937 57.661338 L 59.828605 57.723245 L 59.779885 57.784848 L 59.730779 57.846142 L 59.681288 57.907127 L 59.631415 57.967800 L 59.581162 58.028158 L 59.530531 58.088200 L 59.479524 58.147922 L 59.428142 58.207322 L 59.376388 58.266399 L 59.324264 58.325149 L 59.271772 58.383570 L 59.218914 58.441660 L 59.165692 58.499418 L 59.112108 58.556839 L 59.058164 58.613923 L 59.003863 58.670667 L 58.949206 58.727068 L 58.894196 58.783125 L 58.838834 58.838835 L 58.783124 58.894196 L 58.727067 58.949206 L 58.670666 59.003863 L 58.613922 59.058164 L 58.556839 59.112108 L 58.499417 59.165692 L 58.441660 59.218914 L 58.383569 59.271772 L 58.325148 59.324265 L 58.266398 59.376389 L 58.207322 59.428143 L 58.147921 59.479524 L 58.088199 59.530532 L 58.028158 59.581163 L 57.967800 59.631416 L 57.907127 59.681289 L 57.846142 59.730779 L 57.784847 59.779885 L 57.723245 59.828606 L 57.661338 59.876938 L 57.599128 59.924880 L 57.536619 59.972431 L 57.473812 60.019588 L 57.410710 60.066349 L 57.347315 60.112713 L 57.283631 60.158677 L 57.219658 60.204241 L 57.155401 60.249402 L 57.090861 60.294158 L 57.026042 60.338507 L 56.960945 60.382449 L 56.895573 60.425981 L 56.829929 60.469101 L 56.764015 60.511808 L 56.697835 60.554099 L 56.631389 60.595974 L 56.564682 60.637431 L 56.497716 60.678468 L 56.430494 60.719083 L 56.363017 60.759276 L 56.295290 60.799043 L 56.227313 60.838384 L 56.159091 60.877297 L 56.090626 60.915781 L 56.021920 60.953834 L 55.952977 60.991454 L 55.883799 61.028641 L 55.814388 61.065392 L 55.744748 61.101706 L 55.674881 61.137582 L 55.604790 61.173018 L 55.534477 61.208013 L 55.463947 61.242566 L 55.393200 61.276675 L 55.322241 61.310338 L 55.251071 61.343556 L 55.179694 61.376325 L 55.108113 61.408645 L 55.036330 61.440515 L 54.964348 61.471933 L 54.892170 61.502898 L 54.819799 61.533409 L 54.747238 61.563465 L 54.674490 61.593065 L 54.601556 61.622206 L 54.528442 61.650889 L 54.455148 61.679112 L 54.381678 61.706874 L 54.308036 61.734173 L 54.234223 61.761010 L 54.160244 61.787382 L 54.086100 61.813289 L 54.011795 61.838729 L 53.937331 61.863702 L 53.862712 61.888207 L 53.787940 61.912242 L 53.713019 61.935807 L 53.637951 61.958901 L 53.562740 61.981523 L 53.487388 62.003671 L 53.411899 62.025346 L 53.336274 62.046546 L 53.260518 62.067271 L 53.184633 62.087519 L 53.108623 62.107290 L 53.032490 62.126583 L 52.956237 62.145397 L 52.879867 62.163732 L 52.803384 62.181586 L 52.726790 62.198960 L 52.650088 62.215852 L 52.573282 62.232261 L 52.496374 62.248188 L 52.419368 62.263632 L 52.342266 62.278591 L 52.265071 62.293065 L 52.187788 62.307054 L 52.110417 62.320558 L 52.032964 62.333574 L 51.955430 62.346104 L 51.877819 62.358147 L 51.800134 62.369702 L 51.722378 62.380768 L 51.644554 62.391345 L 51.566665 62.401434 L 51.488714 62.411033 L 51.410704 62.420141 L 51.332639 62.428760 L 51.254521 62.436888 L 51.176353 62.444525 L 51.098139 62.451670 L 51.019882 62.458324 L 50.941584 62.464486 L 50.863250 62.470156 L 50.784881 62.475334 L 50.706481 62.480019 L 50.628053 62.484212 L 50.549601 62.487912 L 50.471127 62.491118 L 50.392634 62.493832 L 50.314125 62.496052 L 50.235605 62.497779 L 50.157075 62.499013 L 50.078539 62.499753 L 49.999999 62.500000 L 49.921460 62.499753 L 49.842924 62.499013 L 49.764394 62.497779 L 49.685873 62.496052 L 49.607365 62.493832 L 49.528872 62.491118 L 49.450398 62.487912 L 49.371945 62.484212 L 49.293518 62.480019 L 49.215118 62.475334 L 49.136749 62.470156 L 49.058414 62.464486 L 48.980117 62.458324 L 48.901859 62.451670 L 48.823645 62.444524 L 48.745478 62.436888 L 48.667360 62.428760 L 48.589294 62.420141 L 48.511285 62.411032 L 48.433334 62.401434 L 48.355445 62.391345 L 48.277621 62.380768 L 48.199864 62.369701 L 48.122179 62.358147 L 48.044568 62.346104 L 47.967035 62.333574 L 47.889581 62.320557 L 47.812211 62.307054 L 47.734927 62.293065 L 47.657733 62.278590 L 47.580631 62.263631 L 47.503624 62.248188 L 47.426717 62.232261 L 47.349910 62.215851 L 47.273209 62.198959 L 47.196615 62.181586 L 47.120131 62.163731 L 47.043762 62.145396 L 46.967509 62.126582 L 46.891376 62.107289 L 46.815365 62.087518 L 46.739480 62.067270 L 46.663724 62.046546 L 46.588100 62.025346 L 46.512610 62.003671 L 46.437258 61.981522 L 46.362047 61.958900 L 46.286979 61.935807 L 46.212058 61.912241 L 46.137287 61.888206 L 46.062668 61.863702 L 45.988204 61.838729 L 45.913899 61.813288 L 45.839755 61.787381 L 45.765775 61.761009 L 45.691963 61.734173 L 45.618320 61.706873 L 45.544851 61.679111 L 45.471557 61.650889 L 45.398442 61.622206 L 45.325509 61.593064 L 45.252760 61.563465 L 45.180199 61.533409 L 45.107828 61.502898 L 45.035650 61.471932 L 44.963669 61.440514 L 44.891886 61.408644 L 44.820304 61.376324 L 44.748927 61.343555 L 44.677758 61.310338 L 44.606799 61.276674 L 44.536052 61.242565 L 44.465521 61.208013 L 44.395209 61.173017 L 44.325118 61.137581 L 44.255251 61.101705 L 44.185611 61.065391 L 44.116200 61.028640 L 44.047022 60.991453 L 43.978078 60.953833 L 43.909373 60.915780 L 43.840907 60.877296 L 43.772685 60.838383 L 43.704709 60.799042 L 43.636981 60.759275 L 43.569505 60.719083 L 43.502282 60.678467 L 43.435316 60.637430 L 43.368609 60.595974 L 43.302164 60.554099 L 43.235983 60.511807 L 43.170070 60.469100 L 43.104426 60.425980 L 43.039054 60.382448 L 42.973957 60.338507 L 42.909137 60.294157 L 42.844598 60.249401 L 42.780340 60.204240 L 42.716368 60.158676 L 42.652683 60.112712 L 42.589289 60.066348 L 42.526187 60.019587 L 42.463380 59.972430 L 42.400870 59.924879 L 42.338661 59.876937 L 42.276754 59.828605 L 42.215152 59.779884 L 42.153857 59.730778 L 42.092872 59.681288 L 42.032199 59.631415 L 41.971841 59.581162 L 41.911800 59.530531 L 41.852078 59.479523 L 41.792677 59.428142 L 41.733601 59.376388 L 41.674851 59.324264 L 41.616429 59.271771 L 41.558339 59.218913 L 41.500582 59.165691 L 41.443160 59.112107 L 41.386077 59.058163 L 41.329333 59.003862 L 41.272931 58.949205 L 41.216875 58.894195 L 41.161164 58.838834 L 41.105803 58.783124 L 41.050793 58.727067 L 40.996136 58.670665 L 40.941835 58.613922 L 40.887891 58.556838 L 40.834307 58.499416 L 40.781085 58.441659 L 40.728227 58.383569 L 40.675735 58.325147 L 40.623611 58.266397 L 40.571857 58.207321 L 40.520475 58.147921 L 40.469468 58.088199 L 40.418837 58.028157 L 40.368584 57.967799 L 40.318711 57.907126 L 40.269220 57.846141 L 40.220114 57.784846 L 40.171394 57.723244 L 40.123062 57.661337 L 40.075119 57.599128 L 40.027569 57.536618 L 39.980412 57.473811 L 39.933651 57.410709 L 39.887287 57.347315 L 39.841322 57.283630 L 39.795759 57.219658 L 39.750598 57.155401 L 39.705842 57.090861 L 39.661492 57.026041 L 39.617551 56.960944 L 39.574019 56.895572 L 39.530899 56.829928 L 39.488192 56.764015 L 39.445900 56.697834 L 39.404025 56.631389 L 39.362568 56.564682 L 39.321531 56.497716 L 39.280916 56.430493 L 39.240724 56.363017 L 39.200957 56.295289 L 39.161616 56.227313 L 39.122702 56.159091 L 39.084219 56.090625 L 39.046166 56.021920 L 39.008545 55.952976 L 38.971359 55.883798 L 38.934608 55.814387 L 38.898294 55.744747 L 38.862418 55.674880 L 38.826982 55.604789 L 38.791986 55.534477 L 38.757434 55.463946 L 38.723325 55.393199 L 38.689661 55.322240 L 38.656444 55.251070 L 38.623675 55.179694 L 38.591355 55.108112 L 38.559485 55.036329 L 38.528067 54.964347 L 38.497101 54.892170 L 38.466590 54.819799 L 38.436534 54.747237 L 38.406935 54.674489 L 38.377793 54.601556 L 38.349111 54.528441 L 38.320888 54.455147 L 38.293126 54.381678 L 38.265826 54.308035 L 38.238990 54.234223 L 38.212618 54.160243 L 38.186711 54.086099 L 38.161271 54.011794 L 38.136298 53.937330 L 38.111793 53.862711 L 38.087758 53.787940 L 38.064193 53.713018 L 38.041099 53.637951 L 38.018477 53.562739 L 37.996329 53.487387 L 37.974654 53.411898 L 37.953454 53.336273 L 37.932729 53.260517 L 37.912481 53.184633 L 37.892710 53.108622 L 37.873417 53.032489 L 37.854603 52.956236 L 37.836268 52.879866 L 37.818414 52.803383 L 37.801040 52.726789 L 37.784148 52.650087 L 37.767738 52.573281 L 37.751812 52.496373 L 37.736368 52.419367 L 37.721409 52.342265 L 37.706935 52.265071 L 37.692946 52.187787 L 37.679442 52.110417 L 37.666425 52.032963 L 37.653896 51.955429 L 37.641853 51.877818 L 37.630298 51.800133 L 37.619232 51.722377 L 37.608654 51.644553 L 37.598566 51.566664 L 37.588967 51.488713 L 37.579858 51.410703 L 37.571240 51.332638 L 37.563112 51.254520 L 37.555475 51.176352 L 37.548330 51.098138 L 37.541676 51.019881 L 37.535514 50.941584 L 37.529844 50.863249 L 37.524666 50.784880 L 37.519981 50.706480 L 37.515788 50.628052 L 37.512088 50.549600 L 37.508882 50.471126 L 37.506168 50.392633 L 37.503948 50.314125 L 37.502221 50.235604 L 37.500987 50.157074 L 37.500247 50.078538 L 37.500000 49.999998 L 37.500247 49.921459 L 37.500987 49.842923 L 37.502221 49.764393 L 37.503948 49.685872 L 37.506168 49.607364 L 37.508882 49.528871 L 37.512088 49.450397 L 37.515788 49.371944 L 37.519981 49.293517 L 37.524666 49.215117 L 37.529844 49.136748 L 37.535514 49.058413 L 37.541676 48.980116 L 37.548330 48.901858 L 37.555476 48.823644 L 37.563112 48.745477 L 37.571240 48.667359 L 37.579859 48.589294 L 37.588968 48.511284 L 37.598566 48.433333 L 37.608655 48.355444 L 37.619232 48.277620 L 37.630299 48.199864 L 37.641853 48.122179 L 37.653896 48.044568 L 37.666426 47.967034 L 37.679443 47.889580 L 37.692946 47.812210 L 37.706935 47.734926 L 37.721410 47.657732 L 37.736369 47.580630 L 37.751812 47.503624 L 37.767739 47.426716 L 37.784149 47.349909 L 37.801041 47.273208 L 37.818414 47.196614 L 37.836269 47.120131 L 37.854604 47.043761 L 37.873418 46.967508 L 37.892711 46.891375 L 37.912482 46.815364 L 37.932730 46.739480 L 37.953454 46.663724 L 37.974655 46.588099 L 37.996329 46.512610 L 38.018478 46.437258 L 38.041100 46.362046 L 38.064194 46.286979 L 38.087759 46.212057 L 38.111794 46.137286 L 38.136299 46.062667 L 38.161272 45.988203 L 38.186712 45.913898 L 38.212619 45.839754 L 38.238991 45.765774 L 38.265827 45.691962 L 38.293127 45.618319 L 38.320889 45.544850 L 38.349112 45.471556 L 38.377795 45.398441 L 38.406936 45.325508 L 38.436536 45.252760 L 38.466591 45.180198 L 38.497103 45.107828 L 38.528068 45.035650 L 38.559486 44.963668 L 38.591356 44.891885 L 38.623676 44.820304 L 38.656445 44.748927 L 38.689663 44.677757 L 38.723326 44.606798 L 38.757435 44.536051 L 38.791988 44.465521 L 38.826983 44.395208 L 38.862419 44.325117 L 38.898295 44.255250 L 38.934609 44.185610 L 38.971361 44.116199 L 39.008547 44.047021 L 39.046167 43.978077 L 39.084220 43.909372 L 39.122704 43.840907 L 39.161617 43.772685 L 39.200958 43.704708 L 39.240726 43.636981 L 39.280918 43.569504 L 39.321533 43.502282 L 39.362570 43.435316 L 39.404027 43.368609 L 39.445902 43.302164 L 39.488194 43.235983 L 39.530901 43.170069 L 39.574021 43.104425 L 39.617552 43.039053 L 39.661494 42.973956 L 39.705844 42.909137 L 39.750600 42.844597 L 39.795760 42.780340 L 39.841324 42.716367 L 39.887289 42.652683 L 39.933653 42.589288 L 39.980414 42.526186 L 40.027571 42.463379 L 40.075121 42.400870 L 40.123064 42.338660 L 40.171396 42.276753 L 40.220116 42.215151 L 40.269222 42.153857 L 40.318713 42.092872 L 40.368586 42.032199 L 40.418839 41.971840 L 40.469470 41.911799 L 40.520477 41.852077 L 40.571859 41.792677 L 40.623613 41.733600 L 40.675737 41.674850 L 40.728229 41.616429 L 40.781087 41.558338 L 40.834309 41.500581 L 40.887893 41.443160 L 40.941837 41.386076 L 40.996139 41.329332 L 41.050795 41.272931 L 41.105805 41.216874 L 41.161167 41.161164 L 41.216877 41.105803 L 41.272934 41.050793 L 41.329335 40.996136 L 41.386079 40.941835 L 41.443163 40.887891 L 41.500584 40.834307 L 41.558341 40.781085 L 41.616432 40.728227 L 41.674853 40.675734 L 41.733603 40.623610 L 41.792680 40.571856 L 41.852080 40.520475 L 41.911802 40.469467 L 41.971843 40.418836 L 42.032202 40.368583 L 42.092875 40.318710 L 42.153860 40.269220 L 42.215154 40.220114 L 42.276756 40.171393 L 42.338663 40.123061 L 42.400873 40.075119 L 42.463382 40.027568 L 42.526189 39.980411 L 42.589291 39.933650 L 42.652686 39.887286 L 42.716371 39.841322 L 42.780343 39.795758 L 42.844600 39.750597 L 42.909140 39.705841 L 42.973959 39.661492 L 43.039056 39.617550 L 43.104428 39.574018 L 43.170072 39.530898 L 43.235986 39.488192 L 43.302167 39.445900 L 43.368612 39.404025 L 43.435319 39.362568 L 43.502285 39.321531 L 43.569508 39.280916 L 43.636984 39.240724 L 43.704712 39.200956 L 43.772688 39.161615 L 43.840910 39.122702 L 43.909375 39.084218 L 43.978081 39.046165 L 44.047024 39.008545 L 44.116203 38.971359 L 44.185613 38.934608 L 44.255254 38.898293 L 44.325121 38.862417 L 44.395212 38.826981 L 44.465524 38.791986 L 44.536055 38.757433 L 44.606801 38.723325 L 44.677761 38.689661 L 44.748930 38.656444 L 44.820307 38.623674 L 44.891889 38.591354 L 44.963672 38.559484 L 45.035653 38.528066 L 45.107831 38.497101 L 45.180202 38.466590 L 45.252763 38.436534 L 45.325512 38.406935 L 45.398445 38.377793 L 45.471560 38.349110 L 45.544854 38.320887 L 45.618323 38.293126 L 45.691965 38.265826 L 45.765778 38.238990 L 45.839758 38.212618 L 45.913902 38.186711 L 45.988207 38.161270 L 46.062671 38.136298 L 46.137290 38.111793 L 46.212061 38.087758 L 46.286982 38.064193 L 46.362050 38.041099 L 46.437261 38.018477 L 46.512613 37.996328 L 46.588103 37.974654 L 46.663727 37.953453 L 46.739483 37.932729 L 46.815368 37.912481 L 46.891379 37.892710 L 46.967512 37.873417 L 47.043765 37.854603 L 47.120134 37.836268 L 47.196618 37.818414 L 47.273212 37.801040 L 47.349913 37.784148 L 47.426720 37.767738 L 47.503627 37.751811 L 47.580634 37.736368 L 47.657736 37.721409 L 47.734930 37.706935 L 47.812214 37.692945 L 47.889584 37.679442 L 47.967038 37.666425 L 48.044571 37.653895 L 48.122182 37.641853 L 48.199867 37.630298 L 48.277624 37.619232 L 48.355448 37.608654 L 48.433337 37.598566 L 48.511288 37.588967 L 48.589297 37.579858 L 48.667363 37.571240 L 48.745481 37.563112 L 48.823648 37.555475 L 48.901862 37.548330 L 48.980120 37.541676 L 49.058417 37.535514 L 49.136752 37.529844 L 49.215121 37.524666 L 49.293521 37.519980 L 49.371948 37.515788 L 49.450401 37.512088 L 49.528875 37.508882 L 49.607368 37.506168 L 49.685876 37.503948 L 49.764397 37.502221 L 49.842927 37.500987 L 49.921463 37.500247 L 50.000002 37.500000 L 50.078542 37.500247 L 50.157078 37.500987 L 50.235608 37.502221 L 50.314129 37.503948 L 50.392637 37.506168 L 50.471130 37.508882 L 50.549604 37.512088 L 50.628056 37.515788 L 50.706484 37.519981 L 50.784884 37.524666 L 50.863253 37.529844 L 50.941587 37.535514 L 51.019885 37.541676 L 51.098142 37.548330 L 51.176356 37.555476 L 51.254524 37.563113 L 51.332642 37.571240 L 51.410707 37.579859 L 51.488717 37.588968 L 51.566668 37.598567 L 51.644557 37.608655 L 51.722381 37.619233 L 51.800137 37.630299 L 51.877822 37.641854 L 51.955433 37.653896 L 52.032967 37.666426 L 52.110420 37.679443 L 52.187791 37.692946 L 52.265074 37.706935 L 52.342269 37.721410 L 52.419371 37.736369 L 52.496377 37.751812 L 52.573285 37.767739 L 52.650091 37.784149 L 52.726793 37.801041 L 52.803387 37.818415 L 52.879870 37.836269 L 52.956240 37.854604 L 53.032493 37.873418 L 53.108626 37.892711 L 53.184636 37.912482 L 53.260521 37.932730 L 53.336277 37.953455 L 53.411902 37.974655 L 53.487391 37.996330 L 53.562743 38.018478 L 53.637954 38.041100 L 53.713022 38.064194 L 53.787943 38.087759 L 53.862715 38.111794 L 53.937334 38.136299 L 54.011797 38.161272 L 54.086103 38.186712 L 54.160247 38.212619 L 54.234226 38.238991 L 54.308039 38.265828 L 54.381681 38.293127 L 54.455151 38.320889 L 54.528444 38.349112 L 54.601559 38.377795 L 54.674492 38.406937 L 54.747241 38.436536 L 54.819802 38.466592 L 54.892173 38.497103 L 54.964351 38.528068 L 55.036333 38.559486 L 55.108116 38.591356 L 55.179697 38.623676 L 55.251074 38.656446 L 55.322243 38.689663 L 55.393203 38.723327 L 55.463949 38.757435 L 55.534480 38.791988 L 55.604792 38.826983 L 55.674884 38.862420 L 55.744751 38.898296 L 55.814391 38.934610 L 55.883801 38.971361 L 55.952980 39.008547 L 56.021923 39.046168 L 56.090629 39.084221 L 56.159094 39.122704 L 56.227316 39.161618 L 56.295292 39.200959 L 56.363020 39.240726 L 56.430496 39.280918 L 56.497719 39.321533 L 56.564685 39.362570 L 56.631392 39.404027 L 56.697837 39.445902 L 56.764018 39.488194 L 56.829932 39.530901 L 56.895576 39.574021 L 56.960947 39.617553 L 57.026044 39.661494 L 57.090864 39.705844 L 57.155404 39.750600 L 57.219661 39.795761 L 57.283633 39.841324 L 57.347318 39.887289 L 57.410712 39.933653 L 57.473814 39.980414 L 57.536621 40.027571 L 57.599131 40.075122 L 57.661340 40.123064 L 57.723247 40.171396 L 57.784849 40.220117 L 57.846144 40.269223 L 57.907129 40.318713 L 57.967802 40.368586 L 58.028160 40.418839 L 58.088202 40.469470 L 58.147924 40.520478 L 58.207324 40.571860 L 58.266400 40.623613 L 58.325150 40.675737 L 58.383572 40.728230 L 58.441662 40.781088 L 58.499419 40.834310 L 58.556841 40.887894 L 58.613925 40.941838 L 58.670668 40.996139 L 58.727070 41.050796 L 58.783127 41.105806 L 58.838837 41.161167 L 58.894198 41.216877 L 58.949208 41.272934 L 59.003865 41.329336 L 59.058166 41.386079 L 59.112110 41.443163 L 59.165694 41.500585 L 59.218916 41.558342 L 59.271774 41.616432 L 59.324266 41.674854 L 59.376390 41.733604 L 59.428144 41.792680 L 59.479526 41.852081 L 59.530533 41.911803 L 59.581164 41.971844 L 59.631417 42.032202 L 59.681290 42.092875 L 59.730781 42.153860 L 59.779887 42.215155 L 59.828607 42.276757 L 59.876939 42.338664 L 59.924882 42.400873 L 59.972432 42.463383 L 60.019589 42.526190 L 60.066350 42.589292 L 60.112714 42.652687 L 60.158679 42.716371 L 60.204242 42.780344 L 60.249403 42.844601 L 60.294159 42.909140 L 60.338509 42.973960 L 60.382450 43.039057 L 60.425982 43.104429 L 60.469102 43.170073 L 60.511809 43.235987 L 60.554101 43.302167 L 60.595976 43.368613 L 60.637433 43.435320 L 60.678469 43.502286 L 60.719085 43.569508 L 60.759277 43.636985 L 60.799044 43.704712 L 60.838385 43.772689 L 60.877298 43.840911 L 60.915782 43.909376 L 60.953835 43.978082 L 60.991455 44.047025 L 61.028642 44.116203 L 61.065393 44.185614 L 61.101707 44.255254 L 61.137583 44.325121 L 61.173019 44.395212 L 61.208014 44.465525 L 61.242567 44.536056 L 61.276676 44.606802 L 61.310339 44.677761 L 61.343557 44.748931 L 61.376326 44.820308 L 61.408646 44.891889 L 61.440516 44.963672 L 61.471934 45.035654 L 61.502899 45.107832 L 61.533410 45.180203 L 61.563466 45.252764 L 61.593066 45.325513 L 61.622207 45.398446 L 61.650890 45.471561 L 61.679113 45.544854 L 61.706875 45.618324 L 61.734174 45.691966 L 61.761011 45.765779 L 61.787383 45.839758 L 61.813289 45.913902 L 61.838730 45.988208 L 61.863703 46.062671 L 61.888207 46.137290 L 61.912243 46.212062 L 61.935808 46.286983 L 61.958902 46.362051 L 61.981523 46.437262 L 62.003672 46.512614 L 62.025347 46.588104 L 62.046547 46.663728 L 62.067271 46.739484 L 62.087519 46.815369 L 62.107290 46.891379 L 62.126583 46.967513 L 62.145397 47.043765 L 62.163732 47.120135 L 62.181587 47.196618 L 62.198960 47.273212 L 62.215852 47.349914 L 62.232262 47.426720 L 62.248189 47.503628 L 62.263632 47.580635 L 62.278591 47.657737 L 62.293066 47.734931 L 62.307055 47.812215 L 62.320558 47.889585 L 62.333575 47.967038 L 62.346105 48.044572 L 62.358147 48.122183 L 62.369702 48.199868 L 62.380768 48.277624 L 62.391346 48.355449 L 62.401434 48.433338 L 62.411033 48.511289 L 62.420142 48.589298 L 62.428760 48.667364 L 62.436888 48.745482 L 62.444525 48.823649 L 62.451670 48.901863 L 62.458324 48.980120 L 62.464486 49.058418 L 62.470157 49.136753 L 62.475334 49.215122 L 62.480020 49.293521 L 62.484212 49.371949 L 62.487912 49.450402 L 62.491119 49.528876 L 62.493832 49.607369 L 62.496052 49.685877 L 62.497779 49.764398 L 62.499013 49.842928 L 62.499753 49.921464" fill="#FFFFFF" />
<rect x="0" y="0" width="100" height="100" stroke="#999999" fill="none" stroke-width="1"/>
</svg>
